<svg width="87" height="23" viewBox="0 0 87 23" fill="none" xmlns="http://www.w3.org/2000/svg">
<path d="M45.3937 1.28426V21.7051H40.3164V1.28426H45.3937ZM57.9971 0.62672C64.0611 0.62672 68.9562 5.3387 68.9562 11.4397C68.9562 17.5768 64.025 22.3618 57.924 22.3618C51.823 22.3618 46.8927 17.6137 46.8927 11.511C46.9288 5.4109 51.9339 0.625 57.9979 0.625L57.9971 0.62672ZM57.961 17.3937C61.1756 17.3937 63.5497 14.6174 63.5497 11.4758C63.5497 8.33419 61.1756 5.59484 57.961 5.59484C54.7463 5.59484 52.3723 8.33419 52.3723 11.4758C52.3723 14.6174 54.7463 17.3937 57.961 17.3937ZM69.5407 15.5027L74.1796 14.4068C74.5079 16.8539 76.2983 17.7306 78.161 17.7306C80.0236 17.7306 80.6811 16.6347 80.6811 15.758C80.6811 15.0644 80.2797 14.3699 78.9277 14.1146L76.0792 13.5645C72.6823 12.9069 70.2713 10.7882 70.2713 7.50044C70.2713 3.59212 73.8143 0.851918 77.8696 0.851918C83.0569 0.851918 85.1756 4.06659 85.5409 6.80593L81.0481 8.12102C80.7929 6.44063 79.77 5.23556 77.9065 5.23556C76.2992 5.23556 75.5325 6.29451 75.5325 7.12654C75.5325 7.82018 75.8608 8.58775 77.0668 8.80693L80.0253 9.35446C83.8975 10.1212 86.0163 12.4591 86.0163 15.5277C86.0163 18.8515 83.1308 22.0661 78.1988 22.0661C72.9754 22.1022 70.2352 19.3999 69.5415 15.4907L69.5407 15.5027Z" fill="white"/>
<path d="M5.50411 21.6682H0.0615234L9.04798 1.28516H14.5275L5.50411 21.6682Z" fill="#ECE9E9"/>
<path d="M18.1065 21.6672H24.9373L29.2109 15.2018L33.4484 21.6672H39.0371L32.2794 11.2565L39.0844 1.24805H32.8742L29.2212 7.31208L25.6782 1.24805H19.4036L26.2343 11.2574L21.8146 17.7228L14.5455 1.28415H9.06592L18.1065 21.6672Z" fill="white"/>
</svg>
