<svg width="33" height="33" viewBox="0 0 33 33" fill="none" xmlns="http://www.w3.org/2000/svg">
<path d="M4.85035 29.4224L2.2583 0.348633H30.7414L28.1468 29.418L16.4826 32.6518L4.85035 29.4224Z" fill="#ECE9E9"/>
<path d="M16.5005 30.18L25.9259 27.5669L28.1433 2.72559H16.5005V30.18Z" fill="#ECE9E9"/>
<path d="M16.5005 13.2592H21.219L21.5448 9.6078H16.5005V6.04199H25.4419L25.3563 6.99873L24.4798 16.825H16.5005V13.2592Z" fill="#323330"/>
<path d="M16.5214 22.5199L16.5056 22.5246L12.5346 21.4523L12.2806 18.6084H8.70166L9.20104 24.2073L16.5051 26.2345L16.5214 26.2299V22.5199Z" fill="#323330"/>
<path d="M20.9153 16.6738L20.4858 21.449L16.5088 22.5226V26.2325L23.8188 24.2066L23.8724 23.6041L24.4927 16.6738H20.9153Z" fill="#323330"/>
<path d="M16.5122 6.04199V9.6078H7.89925L7.82784 8.80652L7.66541 6.99873L7.58008 6.04199H16.5122ZM16.5001 13.2597V16.8255H12.5791L12.5076 16.0242L12.345 14.2165L12.2599 13.2597H16.5001Z" fill="#323330"/>
</svg>
