<svg width="33" height="33" viewBox="0 0 33 33" fill="none" xmlns="http://www.w3.org/2000/svg">
<path d="M4.90803 29.3591L2.32861 0.428711H30.6715L28.0892 29.3548L16.4828 32.5723L4.90803 29.3591Z" fill="#ECE9E9"/>
<path d="M16.5 30.1128L25.8787 27.5125L28.0853 2.79395H16.5V30.1128Z" fill="#ECE9E9"/>
<path d="M16.4999 13.5234H11.8046L11.4803 9.88981H16.4999V6.3418H7.60254L7.68762 7.29364L8.55954 17.0717H16.4999V13.5234ZM16.4999 22.7384L16.4842 22.7428L12.5327 21.6755L12.2803 18.846H8.71809L9.21516 24.417L16.4837 26.4347L16.4999 26.4303V22.7384Z" fill="#323330"/>
<path d="M16.4878 13.5234V17.0717H20.8569L20.4452 21.6734L16.4878 22.7415V26.4331L23.762 24.417L23.8153 23.8176L24.6491 14.4763L24.7355 13.5234H23.7795H16.4878ZM16.4878 6.3418V9.88981H25.0585L25.1297 9.09266L25.2916 7.29364L25.3764 6.3418H16.4878Z" fill="#323330"/>
</svg>
