<svg width="33" height="33" viewBox="0 0 33 33" fill="none" xmlns="http://www.w3.org/2000/svg">
<path d="M0.362793 0.363281H32.6368V32.6375H0.362793V0.363281Z" fill="#ECE9E9"/>
<path d="M29.9959 24.9394C29.7595 23.467 28.7994 22.2303 25.9554 21.0771C24.9675 20.6231 23.8661 20.298 23.5379 19.5493C23.4214 19.1136 23.4059 18.8682 23.4797 18.6044C23.6913 17.7485 24.713 17.4816 25.5228 17.7271C26.0444 17.9019 26.5381 18.3038 26.8359 18.945C28.2286 18.0432 28.2257 18.0491 29.1982 17.4293C28.8422 16.8773 28.6521 16.6226 28.4191 16.3865C27.5815 15.4509 26.4401 14.969 24.6148 15.0059L23.664 15.1289C22.7529 15.3591 21.8846 15.8373 21.3754 16.4785C19.8476 18.212 20.2833 21.246 22.1424 22.4946C23.9739 23.8692 26.6644 24.1819 27.0081 25.4674C27.3425 27.0411 25.8515 27.5505 24.3696 27.3695C23.2775 27.1424 22.6701 26.5873 22.0135 25.578C20.8049 26.2774 20.8049 26.2774 19.5622 26.9921C19.8569 27.6364 20.1665 27.928 20.6605 28.4861C22.9983 30.8575 28.8486 30.7409 29.8979 27.1517C29.9404 27.0284 30.223 26.2065 29.9959 24.9394ZM17.9083 15.1959H14.8896L14.8772 23.0004C14.8772 24.6602 14.9631 26.1818 14.6931 26.6482C14.2515 27.5655 13.1071 27.4518 12.5855 27.2739C12.0547 27.013 11.7848 26.642 11.472 26.1176C11.3862 25.967 11.3217 25.8505 11.3001 25.8415L8.8457 27.3445C9.25382 28.1822 9.85504 28.9092 10.6251 29.3815C11.7755 30.0719 13.3216 30.2836 14.9386 29.9123C15.991 29.6058 16.899 28.9708 17.3744 28.0043C18.0617 26.7371 17.9143 25.2034 17.9081 23.507C17.9235 20.7394 17.9083 17.9723 17.9083 15.1959Z" fill="#323330"/>
</svg>
