<svg width="33" height="33" viewBox="0 0 33 33" fill="none" xmlns="http://www.w3.org/2000/svg">
<path d="M16.5001 19.4387C18.1233 19.4387 19.4392 18.1228 19.4392 16.4996C19.4392 14.8764 18.1233 13.5605 16.5001 13.5605C14.8769 13.5605 13.561 14.8764 13.561 16.4996C13.561 18.1228 14.8769 19.4387 16.5001 19.4387Z" fill="#ECE9E9"/>
<path d="M27.6632 11.6527C27.096 11.4465 26.503 11.2402 25.8843 11.0598C26.039 10.441 26.1679 9.82227 26.271 9.2293C26.8124 5.82617 26.2194 3.42852 24.5694 2.50039C24.0796 2.2168 23.5382 2.08789 22.9194 2.08789C21.1147 2.08789 18.8202 3.42852 16.4999 5.67148C14.1796 3.42852 11.8851 2.08789 10.0804 2.08789C9.46162 2.08789 8.92021 2.2168 8.43037 2.50039C6.78037 3.4543 6.1874 5.85195 6.72881 9.2293C6.83193 9.82227 6.96084 10.441 7.11553 11.0598C6.49678 11.2402 5.90381 11.4207 5.33662 11.6527C2.11396 12.8902 0.36084 14.5918 0.36084 16.4996C0.36084 18.4074 2.13975 20.109 5.33662 21.3465C5.90381 21.5527 6.49678 21.759 7.11553 21.9395C6.96084 22.5582 6.83193 23.177 6.72881 23.7699C6.1874 27.173 6.78037 29.5707 8.43037 30.4988C8.92021 30.7824 9.46162 30.9113 10.0804 30.9113C11.9108 30.9113 14.2054 29.5707 16.4999 27.3277C18.8202 29.5707 21.1147 30.9113 22.9194 30.9113C23.5382 30.9113 24.0796 30.7824 24.5694 30.4988C26.2194 29.5449 26.8124 27.1473 26.271 23.7699C26.1679 23.177 26.039 22.5582 25.8843 21.9395C26.503 21.759 27.096 21.5785 27.6632 21.3465C30.8858 20.109 32.639 18.4074 32.639 16.4996C32.639 14.5918 30.8858 12.8902 27.6632 11.6527ZM23.8476 3.78945C24.9046 4.4082 25.2655 6.31602 24.8272 9.02305C24.7499 9.56445 24.621 10.1316 24.4663 10.7246C23.1257 10.4152 21.7077 10.209 20.2124 10.0801C19.3358 8.84258 18.4335 7.73398 17.5312 6.72852C19.439 4.84648 21.3726 3.55742 22.9452 3.55742C23.2804 3.55742 23.5897 3.63477 23.8476 3.78945ZM20.9601 19.0777C20.496 19.9027 19.9546 20.7277 19.3874 21.5527C18.4335 21.6301 17.4796 21.6559 16.4999 21.6559C15.4944 21.6559 14.5405 21.6301 13.6124 21.5527C13.0452 20.7277 12.5296 19.9027 12.0655 19.0777C11.5757 18.227 11.1116 17.3504 10.6991 16.4996C11.1116 15.6488 11.5757 14.7723 12.0655 13.9215C12.5296 13.0965 13.071 12.2715 13.6382 11.4465C14.5921 11.3691 15.546 11.3434 16.5257 11.3434C17.5311 11.3434 18.4851 11.3691 19.4132 11.4465C19.9804 12.2715 20.496 13.0965 20.9601 13.9215C21.4499 14.7723 21.914 15.6488 22.3265 16.4996C21.8882 17.3504 21.4499 18.2012 20.9601 19.0777ZM23.0999 18.227C23.4866 19.1293 23.796 20.0059 24.0796 20.8824C23.203 21.0887 22.2749 21.2434 21.2952 21.3723C21.6046 20.8824 21.9397 20.3668 22.2233 19.8254C22.5327 19.284 22.8163 18.7426 23.0999 18.227ZM16.4999 25.2137C15.8812 24.5434 15.2882 23.8215 14.721 23.0738C15.314 23.0996 15.9069 23.1254 16.4999 23.1254C17.0929 23.1254 17.6858 23.0996 18.2788 23.0738C17.7116 23.8215 17.1187 24.5434 16.4999 25.2137ZM11.7046 21.3465C10.7249 21.2176 9.79678 21.0629 8.92021 20.8566C9.20381 20.0059 9.51318 19.1035 9.8999 18.2012C10.1835 18.7168 10.4671 19.2582 10.7765 19.7738C11.0858 20.341 11.3952 20.8309 11.7046 21.3465ZM9.8999 14.7723C9.51318 13.8699 9.20381 12.9934 8.92021 12.1168C9.79678 11.9105 10.7249 11.7559 11.7046 11.627C11.3952 12.1168 11.0601 12.6324 10.7765 13.1738C10.4671 13.7152 10.1835 14.2566 9.8999 14.7723ZM16.4999 7.78555C17.1187 8.45586 17.7116 9.17773 18.2788 9.92539C17.6858 9.89961 17.0929 9.87383 16.4999 9.87383C15.9069 9.87383 15.314 9.89961 14.721 9.92539C15.2882 9.17773 15.8812 8.45586 16.4999 7.78555ZM22.2233 13.1996L21.2952 11.6527C22.2749 11.7816 23.203 11.9363 24.0796 12.1426C23.796 12.9934 23.4866 13.8957 23.0999 14.798C22.8163 14.2566 22.5327 13.7152 22.2233 13.1996ZM8.17256 9.02305C7.73428 6.31602 8.09521 4.4082 9.15224 3.78945C9.41006 3.63477 9.71943 3.55742 10.0546 3.55742C11.6015 3.55742 13.5351 4.8207 15.4686 6.72852C14.5663 7.7082 13.664 8.84258 12.7874 10.0801C11.2921 10.209 9.87412 10.441 8.53349 10.7246C8.37881 10.1316 8.27568 9.56445 8.17256 9.02305ZM1.80459 16.4996C1.80459 15.2879 3.27412 13.9988 5.85225 13.0449C6.36787 12.8387 6.93506 12.6582 7.50225 12.5035C7.91475 13.7926 8.43037 15.159 9.04912 16.5254C8.43037 17.8918 7.88896 19.2324 7.50225 20.5215C3.94443 19.4902 1.80459 17.9434 1.80459 16.4996ZM9.15224 29.2098C8.09521 28.591 7.73428 26.6832 8.17256 23.9762C8.2499 23.4348 8.37881 22.8676 8.53349 22.2746C9.87412 22.584 11.2921 22.7902 12.7874 22.9191C13.664 24.1566 14.5663 25.2652 15.4686 26.2707C13.5608 28.1527 11.6272 29.4418 10.0546 29.4418C9.71943 29.4418 9.41006 29.3645 9.15224 29.2098ZM24.8272 23.9762C25.2655 26.6832 24.9046 28.591 23.8476 29.2098C23.5897 29.3645 23.2804 29.4418 22.9452 29.4418C21.3983 29.4418 19.4647 28.1785 17.5312 26.2707C18.4335 25.291 19.3358 24.1566 20.2124 22.9191C21.7077 22.7902 23.1257 22.5582 24.4663 22.2746C24.621 22.8676 24.7241 23.4348 24.8272 23.9762ZM27.1476 19.9543C26.6319 20.1605 26.0647 20.341 25.4976 20.4957C25.0851 19.2066 24.5694 17.8402 23.9507 16.4738C24.5694 15.1074 25.1108 13.7668 25.4976 12.4777C29.0554 13.509 31.1952 15.0559 31.1952 16.4996C31.1952 17.7113 29.6999 19.0004 27.1476 19.9543Z" fill="#ECE9E9"/>
</svg>
