<svg width="33" height="33" viewBox="0 0 33 33" fill="none" xmlns="http://www.w3.org/2000/svg">
<path d="M22.8652 22.7155C20.5449 27.4593 16.4817 30.651 11.1063 31.7003C10.2821 31.9022 9.43606 32.0009 8.58751 31.9942C5.49376 31.9942 2.65783 30.7051 1.28111 28.5936C-0.567408 25.7809 -1.19647 19.8177 4.89822 15.4065C5.02197 16.0794 5.27462 17.0024 5.4422 17.5489C4.24578 18.4378 3.26646 19.5864 2.5779 20.9082C1.44353 23.1357 1.56986 25.3607 2.91306 27.418C3.84119 28.805 5.31072 29.6481 7.20048 29.9059C9.56085 30.2047 11.9554 29.7537 14.0454 28.6168C17.3222 26.8946 19.5059 24.8373 20.9342 22.0246C20.5303 21.6072 20.2912 21.0577 20.2613 20.4777C20.2397 19.8553 20.4659 19.2498 20.8903 18.794C21.3146 18.3382 21.9025 18.0694 22.5249 18.0465H22.6125C23.2178 18.0435 23.8012 18.2733 24.2418 18.6883C24.6825 19.1034 24.9467 19.672 24.9798 20.2764C25.0129 20.8808 24.8124 21.4749 24.4197 21.9356C24.0271 22.3963 23.4724 22.6885 22.8703 22.7516L22.8652 22.7155ZM30.2567 17.5077C33.4045 21.0758 33.4896 25.2756 32.2727 27.7119C31.1384 29.9368 28.1477 32.1643 24.1259 32.1643C22.2484 32.126 20.4014 31.6819 18.7118 30.8624C19.3022 30.4421 20.1401 29.7693 20.6016 29.349C21.9045 29.9135 23.3067 30.2132 24.7266 30.2307C27.3305 30.2307 29.3027 29.0139 30.4784 26.7889C31.2338 25.3194 31.2776 23.5972 30.5634 21.8338C29.6872 19.615 28.1279 17.7325 26.111 16.4584C23.465 14.6747 20.3457 13.7238 17.1546 13.7282H16.3992C16.2231 14.1351 15.9365 14.4845 15.572 14.7369C15.2075 14.9894 14.7796 15.1347 14.3367 15.1564H14.2568C13.6443 15.1489 13.0588 14.9029 12.6248 14.4706C12.1907 14.0384 11.9423 13.454 11.9322 12.8415C11.9222 12.229 12.1513 11.6367 12.5709 11.1904C12.9905 10.7441 13.5675 10.479 14.1795 10.4514H14.2645C14.691 10.4517 15.1091 10.5695 15.4729 10.7919C15.8368 11.0143 16.1323 11.3327 16.327 11.7121H16.9999C22.3624 11.7121 27.0701 13.7694 30.2567 17.5077ZM8.92267 23.4374C8.87852 23.0093 8.98224 22.5789 9.21657 22.2179C6.86533 18.1445 5.6072 12.9805 7.53822 7.60512C8.92267 3.5652 12.4083 0.834961 16.1878 0.834961C20.22 0.834961 24.4198 4.36441 24.9225 11.1655C24.2934 10.9567 23.3756 10.6499 22.8239 10.5364C22.6873 8.31152 20.8078 2.76855 16.3554 2.85105C14.7595 2.89488 12.4083 3.65027 11.1992 5.2023C9.70349 7.055 8.8334 9.33401 8.71384 11.7121C8.43043 14.9728 9.19546 18.2389 10.8975 21.0346C10.9915 21.0002 11.0916 20.9862 11.1914 20.9933H11.2739C11.8975 20.982 12.5 21.2189 12.949 21.6519C13.3979 22.0849 13.6564 22.6784 13.6677 23.302C13.679 23.9256 13.4421 24.5282 13.0091 24.9771C12.5762 25.426 11.9826 25.6845 11.359 25.6958H11.2739C10.6656 25.6937 10.0815 25.4568 9.64347 25.0346C9.20544 24.6124 8.94724 24.0375 8.92267 23.4296V23.4374Z" fill="#ECE9E9"/>
</svg>
