<svg width="34" height="33" viewBox="0 0 34 33" fill="none" xmlns="http://www.w3.org/2000/svg">
<path d="M17.001 6.60059C12.4676 6.60059 9.6352 8.79973 8.50098 13.1998C10.2004 11.0004 12.1844 10.1757 14.4504 10.7256C15.7443 11.0386 16.6689 11.9492 17.6929 12.9582C19.3595 14.5997 21.2884 16.5001 25.501 16.5001C30.0341 16.5001 32.8668 14.3007 34.001 9.89955C32.3012 12.1002 30.3176 12.925 28.0512 12.3751C26.7577 12.0618 25.8341 11.1515 24.8088 10.1424C23.1433 8.50092 21.2149 6.60059 17.001 6.60059ZM8.50098 16.5001C3.96782 16.5001 1.1352 18.6995 0.000976562 23.1006C1.70045 20.8999 3.68413 20.0752 5.95045 20.6251C7.2443 20.9383 8.16895 21.8486 9.19293 22.8577C10.8595 24.4992 12.7884 26.3996 17.001 26.3996C21.5341 26.3996 24.3668 24.2004 25.501 19.8003C23.8012 21.9997 21.8176 22.8245 19.5512 22.2746C18.2577 21.9616 17.3341 21.051 16.3088 20.0419C14.6433 18.4004 12.7149 16.5001 8.50098 16.5001Z" fill="#ECE9E9"/>
</svg>
