<svg width="33" height="33" viewBox="0 0 33 33" fill="none" xmlns="http://www.w3.org/2000/svg">
<g clip-path="url(#clip0_188_2765)">
<path d="M32.8908 4.88428L17.389 32.5693C17.069 33.1409 16.2467 33.1442 15.9218 32.5754L0.11272 4.88695C-0.241198 4.26709 0.289517 3.51626 0.992825 3.64181L16.5112 6.41215C16.6102 6.42982 16.7115 6.42965 16.8105 6.41163L32.0043 3.64579C32.7053 3.51819 33.2385 4.2632 32.8908 4.88428Z" fill="#ECE9E9"/>
<path d="M23.9035 0.00812427L12.4317 2.25315C12.2432 2.29004 12.1036 2.44963 12.0922 2.64115L11.3865 14.5444C11.3699 14.8248 11.6277 15.0424 11.9017 14.9793L15.0956 14.2431C15.3944 14.1743 15.6644 14.4371 15.603 14.7373L14.6541 19.3781C14.5903 19.6904 14.8839 19.9575 15.1893 19.8648L17.162 19.2662C17.4678 19.1735 17.7617 19.4413 17.697 19.7539L16.189 27.0436C16.0946 27.4995 16.7019 27.7482 16.9551 27.3572L17.1243 27.0961L26.4722 8.46437C26.6287 8.1524 26.3588 7.79669 26.0157 7.86281L22.7281 8.49651C22.4192 8.556 22.1563 8.26865 22.2435 7.96677L24.3892 0.537598C24.4765 0.235206 24.2127 -0.0523935 23.9035 0.00812427Z" fill="#A8A8A8"/>
</g>
<defs>
<clipPath id="clip0_188_2765">
<rect width="33" height="33" fill="white"/>
</clipPath>
</defs>
</svg>
