<svg width="31" height="30" viewBox="0 0 31 30" fill="none" xmlns="http://www.w3.org/2000/svg">
<path fill-rule="evenodd" clip-rule="evenodd" d="M15.5 0C6.93879 0 0 6.88493 0 15.3797C0 22.1736 4.43989 27.9391 10.6001 29.9745C11.3756 30.1133 11.6553 29.6399 11.6553 29.2328C11.6553 28.8674 11.6429 27.899 11.6382 26.6176C7.32575 27.5459 6.41508 24.5545 6.41508 24.5545C5.71265 22.7781 4.69476 22.3047 4.69476 22.3047C3.28835 21.3502 4.80199 21.3718 4.80199 21.3718C6.35913 21.4798 7.17501 22.957 7.17501 22.957C8.5581 25.3069 10.8052 24.6285 11.6848 24.2353C11.8262 23.2407 12.2303 22.5622 12.6716 22.1783C9.231 21.7912 5.61319 20.4713 5.61319 14.5763C5.61319 12.9002 6.21772 11.5247 7.20453 10.4515C7.04757 10.0614 6.51143 8.4963 7.35838 6.38071C7.35838 6.38071 8.65911 5.96591 11.6196 7.95507C12.8839 7.61378 14.1881 7.43958 15.4984 7.43696C16.8088 7.43907 18.1131 7.61329 19.3773 7.95507C22.3393 5.96437 23.6385 6.38071 23.6385 6.38071C24.4855 8.4963 23.954 10.0614 23.7924 10.4515C24.7869 11.5247 25.3837 12.8986 25.3837 14.5763C25.3837 20.4867 21.7628 21.7851 18.3097 22.1659C18.8614 22.6409 19.3587 23.5784 19.3587 25.0124C19.3587 27.0694 19.34 28.7286 19.34 29.2328C19.34 29.6445 19.6167 30.1225 20.4077 29.9714C26.5648 27.9329 31 22.1721 31 15.3797C31 6.88493 24.0612 0 15.5 0Z" fill="#E2E2E2"/>
</svg>
