<svg width="270" height="137" viewBox="0 0 270 137" fill="none" xmlns="http://www.w3.org/2000/svg">
<path d="M141.399 41.9115V95.6148H128.132V41.9115H141.399ZM174.331 40.1823C190.176 40.1823 202.966 52.5739 202.966 68.6185C202.966 84.758 190.082 97.3418 174.14 97.3418C158.198 97.3418 145.316 84.8552 145.316 68.8061C145.41 52.7638 158.488 40.1777 174.333 40.1777L174.331 40.1823ZM174.237 84.2765C182.636 84.2765 188.84 76.9753 188.84 68.7134C188.84 60.4516 182.636 53.2476 174.237 53.2476C165.837 53.2476 159.634 60.4516 159.634 68.7134C159.634 76.9753 165.837 84.2765 174.237 84.2765ZM204.494 79.3036L216.615 76.4215C217.473 82.857 222.151 85.1626 227.018 85.1626C231.885 85.1626 233.603 82.2805 233.603 79.9749C233.603 78.1507 232.554 76.3243 229.021 75.653L221.578 74.2063C212.702 72.4771 206.403 66.9051 206.403 58.2589C206.403 47.9807 215.66 40.7745 226.257 40.7745C239.811 40.7745 245.347 49.2285 246.301 56.4325L234.562 59.891C233.895 55.4718 231.222 52.3027 226.353 52.3027C222.153 52.3027 220.15 55.0875 220.15 57.2756C220.15 59.0998 221.008 61.1184 224.159 61.6948L231.889 63.1347C242.007 65.151 247.543 71.2994 247.543 79.3691C247.543 88.1102 240.004 96.5642 227.117 96.5642C213.468 96.6592 206.308 89.5524 204.496 79.2719L204.494 79.3036Z" fill="white"/>
<path d="M37.1704 95.5155H22.9492L46.4303 41.9116H60.7481L37.1704 95.5155Z" fill="#0A99E0"/>
<path d="M70.0992 95.5157H87.9475L99.1142 78.5128L110.187 95.5157H124.79L107.132 68.1374L124.913 41.8169H108.686L99.1411 57.7642L89.8835 41.8169H73.4882L91.3366 68.1396L79.7881 85.1426L60.7943 41.9118H46.4766L70.0992 95.5157Z" fill="white"/>
<path d="M141.399 41.9115V95.6148H128.133V41.9115H141.399ZM174.331 40.1823C190.176 40.1823 202.967 52.5739 202.967 68.6185C202.967 84.758 190.082 97.3418 174.14 97.3418C158.199 97.3418 145.316 84.8552 145.316 68.8061C145.413 52.7638 158.489 40.1777 174.334 40.1777L174.331 40.1823ZM174.235 84.2765C182.634 84.2765 188.838 76.9753 188.838 68.7134C188.838 60.4516 182.634 53.2476 174.235 53.2476C165.835 53.2476 159.632 60.4516 159.632 68.7134C159.632 76.9753 165.835 84.2765 174.235 84.2765ZM204.494 79.3036L216.615 76.4215C217.473 82.857 222.151 85.1626 227.018 85.1626C231.885 85.1626 233.603 82.2805 233.603 79.9749C233.603 78.1507 232.555 76.3243 229.022 75.653L221.579 74.2063C212.703 72.4771 206.403 66.9051 206.403 58.2589C206.403 47.9807 215.661 40.7745 226.257 40.7745C239.811 40.7745 245.347 49.2285 246.302 56.4325L234.562 59.891C233.895 55.4718 231.223 52.3027 226.354 52.3027C222.154 52.3027 220.15 55.0875 220.15 57.2756C220.15 59.0998 221.008 61.1184 224.159 61.6948L231.89 63.1347C242.008 65.151 247.544 71.2994 247.544 79.3691C247.544 88.1102 240.004 96.5642 227.117 96.5642C213.469 96.6614 206.309 89.5524 204.496 79.2719L204.494 79.3036ZM46.4307 41.9115H60.7484L79.7421 85.1423L91.2907 68.1393L73.4423 41.8165H89.8376L99.0952 57.7639L108.64 41.8165H124.867L107.113 68.1393L124.771 95.5176H110.168L99.0952 78.5147L87.9285 95.5176H70.0802L53.8197 58.0012L46.4307 41.9115Z" fill="black"/>
<path d="M46.4307 41.9113L70.1027 95.5151L64.6047 63.3356L46.4307 41.9067" fill="black"/>
</svg>
