<svg width="88" height="89" viewBox="0 0 88 89" fill="none" xmlns="http://www.w3.org/2000/svg">
<path d="M12.8734 78.5629L5.99658 0.930664H81.5634L74.6798 78.5512L43.7342 87.1859L12.8734 78.5629Z" fill="#1572B6"/>
<path d="M43.7808 80.5862L68.7866 73.6085L74.6696 7.27783H43.7808V80.5862Z" fill="#33A9DC"/>
<path d="M43.7808 35.4036H56.2991L57.1636 25.6537H43.7808V16.1323H67.5028L67.2757 18.687L64.9502 44.9249H43.7808V35.4036Z" fill="white"/>
<path d="M43.8368 60.1315L43.7951 60.1439L33.2597 57.2808L32.5859 49.687H23.0908L24.4157 64.6371L43.7937 70.0501L43.8368 70.0377V60.1315Z" fill="#EBEBEB"/>
<path d="M55.4949 44.5225L54.3554 57.2731L43.8042 60.1396V70.0458L63.198 64.6363L63.3402 63.0275L64.9859 44.5225H55.4949Z" fill="white"/>
<path d="M43.8126 16.1323V25.6537H20.962L20.7725 23.5141L20.3416 18.687L20.1152 16.1323H43.8126ZM43.7805 35.4049V44.9263H33.3777L33.1883 42.7867L32.7567 37.9596L32.531 35.4049H43.7805Z" fill="#EBEBEB"/>
</svg>
