<svg width="102" height="102" viewBox="0 0 102 102" fill="none" xmlns="http://www.w3.org/2000/svg">
<path d="M100.252 77.9686C96.6506 78.8847 94.4235 78.0081 92.4255 75.0071C87.9398 68.2864 82.9881 61.8737 78.2101 55.3425C77.5941 54.4975 76.9544 53.6682 76.1568 52.6179C70.5022 60.2468 64.8555 67.5124 59.5564 75.0703C57.661 77.7712 55.6708 78.9479 52.1328 77.9923L73.3927 49.4589L53.6017 23.6896C57.0055 23.0262 59.3589 23.3658 61.4439 26.4142C66.0481 33.1428 71.1261 39.5476 76.1884 46.3236C81.2822 39.5713 86.2971 33.1586 91.0355 26.4932C92.9388 23.7922 94.9843 22.7656 98.4039 23.7606C95.8135 27.196 93.2784 30.5761 90.7275 33.9325C87.2843 38.4578 83.9042 43.0383 80.3345 47.4687C79.063 49.0482 79.2684 50.0749 80.4056 51.5675C87.0079 60.2468 93.5311 69.013 100.252 77.9686ZM1.26539 48.9851C1.83401 46.1341 2.21308 43.2278 3.00283 40.4321C7.74129 23.5079 27.169 16.4713 40.5156 26.9591C48.3341 33.1112 50.2769 41.7826 49.8899 51.5596H5.82221C5.15883 69.0998 17.7868 79.6903 33.8818 74.2884C39.5285 72.3931 42.8533 67.9705 44.5196 62.4423C45.3647 59.6703 46.7625 59.2359 49.3687 60.0257C48.034 66.9438 45.0093 72.7247 38.6913 76.3418C29.2144 81.7594 15.6861 80.0062 8.57052 72.4799C4.36908 68.0574 2.58426 62.5528 1.79452 56.6061C1.67606 55.6584 1.43124 54.7265 1.2417 53.7867C1.25749 52.1861 1.26539 50.5856 1.26539 48.9851ZM5.90119 47.8083H45.728C45.4673 35.1251 37.5699 26.1141 26.7741 26.0351C14.928 25.9403 6.41452 34.7381 5.90119 47.8083Z" fill="#D8D8D8"/>
</svg>
