<svg width="88" height="89" viewBox="0 0 88 89" fill="none" xmlns="http://www.w3.org/2000/svg">
<path d="M13.021 78.3931L6.17773 1.14355H81.3725L74.5217 78.3814L43.7293 86.9727L13.021 78.3931Z" fill="#E44D26"/>
<path d="M43.7754 80.4058L68.6575 73.4625L74.5117 7.45947H43.7754V80.4058Z" fill="#F16529"/>
<path d="M43.775 36.1103H31.3182L30.4578 26.4079H43.775V16.9341H20.1699L20.3956 19.4757L22.7089 45.5849H43.775V36.1103ZM43.775 60.716L43.7333 60.7277L33.2498 57.8777L32.5802 50.3225H23.1295L24.4483 65.1982L43.7319 70.5857L43.775 70.574V60.716Z" fill="#EBEBEB"/>
<path d="M43.7422 36.1103V45.5849H55.3337L54.2414 57.8722L43.7422 60.7243V70.5816L63.0409 65.1982L63.1825 63.5977L65.3945 38.6547L65.6236 36.1103H63.0874H43.7422ZM43.7422 16.9341V26.4079H66.4806L66.6694 24.2794L67.099 19.4757L67.324 16.9341H43.7422Z" fill="white"/>
</svg>
