<svg width="62" height="63" viewBox="0 0 62 63" fill="none" xmlns="http://www.w3.org/2000/svg">
<path d="M0.672852 1.64355H60.5165V61.4876H0.672852V1.64355Z" fill="#F0DB4F"/>
<path d="M55.6192 47.2147C55.1809 44.4846 53.4006 42.1914 48.1273 40.0531C46.2955 39.2113 44.2532 38.6085 43.6447 37.2202C43.4286 36.4123 43.3999 35.9572 43.5367 35.4682C43.9291 33.8811 45.8236 33.3863 47.3252 33.8414C48.2922 34.1655 49.2077 34.9108 49.7598 36.0997C52.3422 34.4275 52.337 34.4385 54.1402 33.2893C53.48 32.2658 53.1277 31.7935 52.6955 31.3556C51.1424 29.6207 49.026 28.7273 45.6415 28.7956L43.8785 29.0237C42.189 29.4506 40.579 30.3373 39.6349 31.5262C36.802 34.7406 37.6099 40.3662 41.057 42.6814C44.4531 45.2304 49.4419 45.8102 50.0792 48.1938C50.6992 51.1117 47.9347 52.0564 45.1869 51.7208C43.1619 51.2996 42.0356 50.2704 40.818 48.3988C38.5769 49.6958 38.5769 49.6958 36.2728 51.0209C36.8192 52.2155 37.3933 52.7562 38.3092 53.7912C42.6441 58.1882 53.4919 57.9722 55.4376 51.3168C55.5165 51.0883 56.0404 49.5643 55.6192 47.2147ZM33.2061 29.148H27.6087L27.5857 43.6193C27.5857 46.697 27.7449 49.5184 27.2444 50.3832C26.4255 52.0841 24.3035 51.8733 23.3364 51.5434C22.3521 51.0596 21.8516 50.3717 21.2717 49.3994C21.1125 49.1202 20.993 48.9041 20.9528 48.8874L16.4019 51.6744C17.1586 53.2276 18.2734 54.5757 19.7013 55.4514C21.8344 56.7316 24.7012 57.1241 27.6995 56.4357C29.6509 55.8673 31.3346 54.6899 32.2161 52.8977C33.4905 50.5481 33.2171 47.7042 33.2056 44.5587C33.2343 39.4269 33.2061 34.296 33.2061 29.148Z" fill="#323330"/>
</svg>
