<svg width="102" height="102" viewBox="0 0 102 102" fill="none" xmlns="http://www.w3.org/2000/svg">
<path d="M90.2872 63.997C90.0582 63.997 89.8307 63.937 89.6302 63.8201L87.5373 62.5818C87.2246 62.4073 87.377 62.3449 87.4805 62.3093C87.8975 62.164 87.982 62.1301 88.4266 61.8789C88.4732 61.8529 88.534 61.8623 88.5822 61.8908L90.1893 62.8456C90.2192 62.8615 90.2525 62.8699 90.2864 62.8699C90.3203 62.8699 90.3537 62.8615 90.3836 62.8456L96.6518 59.2277C96.6813 59.2103 96.7057 59.1855 96.7226 59.1557C96.7395 59.1259 96.7483 59.0922 96.7481 59.058V51.8239C96.7482 51.7892 96.7392 51.755 96.7222 51.7247C96.7052 51.6944 96.6807 51.669 96.651 51.6509L90.3851 48.0363C90.3555 48.02 90.3222 48.0114 90.2884 48.0114C90.2546 48.0114 90.2213 48.02 90.1917 48.0363L83.9266 51.6517C83.8969 51.6697 83.8723 51.6949 83.855 51.725C83.8377 51.7552 83.8284 51.7892 83.8279 51.8239V59.058C83.8279 59.1275 83.8666 59.193 83.9266 59.2254L85.6435 60.2181C86.5754 60.6832 87.1464 60.1352 87.1464 59.5839V52.4407C87.1464 52.3404 87.2278 52.2606 87.3281 52.2606H88.1233C88.222 52.2606 88.3042 52.3404 88.3042 52.4407V59.5839C88.3042 60.827 87.6274 61.5401 86.4483 61.5401C86.0858 61.5401 85.8007 61.5401 85.0046 61.1484L83.3612 60.2023C83.1612 60.0858 82.9954 59.9188 82.8801 59.7182C82.7648 59.5175 82.7041 59.2902 82.7041 59.0587V51.8247C82.7041 51.3548 82.9545 50.9165 83.3612 50.6827L89.6294 47.0602C89.8313 46.9502 90.0576 46.8926 90.2876 46.8926C90.5176 46.8926 90.7439 46.9502 90.9459 47.0602L97.2141 50.6827C97.62 50.9173 97.8719 51.3556 97.8719 51.8247V59.0587C97.8715 59.2902 97.8106 59.5175 97.6952 59.7181C97.5798 59.9187 97.4139 60.0856 97.2141 60.2023L90.9459 63.8209C90.7458 63.937 90.5185 63.9978 90.2872 63.997ZM92.2245 59.0129C89.4801 59.0129 88.906 57.7533 88.906 56.6974C88.9062 56.6494 88.9254 56.6034 88.9594 56.5695C88.9935 56.5356 89.0396 56.5166 89.0876 56.5166H89.8979C89.9412 56.5164 89.9832 56.5318 90.0162 56.5599C90.0493 56.588 90.0712 56.6269 90.0779 56.6698C90.1996 57.4951 90.5652 57.9112 92.2245 57.9112C93.5441 57.9112 94.1064 57.6127 94.1064 56.9114C94.1064 56.5071 93.9469 56.2078 91.8951 56.0064C90.1798 55.8366 89.1192 55.4583 89.1192 54.0849C89.1192 52.8206 90.1853 52.0656 91.9717 52.0656C93.9801 52.0656 94.9736 52.7629 95.0991 54.2587C95.1011 54.2839 95.0979 54.3092 95.0898 54.3331C95.0816 54.357 95.0687 54.379 95.0518 54.3977C95.0346 54.4156 95.014 54.43 94.9912 54.4399C94.9684 54.4498 94.9439 54.455 94.9191 54.4553H94.1048C94.0638 54.4554 94.0239 54.4414 93.9919 54.4157C93.9598 54.39 93.9376 54.3541 93.9287 54.314C93.7329 53.4452 93.259 53.168 91.971 53.168C90.5297 53.168 90.3622 53.6711 90.3622 54.0462C90.3622 54.5019 90.5597 54.6346 92.5064 54.8921C94.4326 55.1471 95.3479 55.5073 95.3479 56.8617C95.3487 58.2303 94.2099 59.0129 92.2245 59.0129Z" fill="#83CD29"/>
<path d="M77.3807 54.2682C77.6279 54.1237 77.7803 53.8599 77.7803 53.5733V51.7142C77.7803 51.4283 77.6287 51.1645 77.3807 51.02L70.7753 47.185C70.6531 47.114 70.5144 47.0765 70.3731 47.0762C70.2318 47.0759 70.0929 47.1129 69.9705 47.1834L63.324 51.0208C63.2022 51.0914 63.1009 51.1927 63.0305 51.3147C62.9601 51.4366 62.923 51.575 62.9229 51.7158V59.3889C62.9229 59.6772 63.0776 59.9441 63.3288 60.0871L69.9334 63.8502C70.1766 63.99 70.4752 63.9908 70.7208 63.8549L74.7153 61.6342C74.7775 61.5997 74.8294 61.5493 74.8657 61.4881C74.902 61.4269 74.9213 61.3572 74.9218 61.2861C74.9223 61.215 74.9039 61.145 74.8684 61.0834C74.833 61.0217 74.7817 60.9706 74.72 60.9353L68.0325 57.0971C67.9711 57.0621 67.9201 57.0116 67.8846 56.9506C67.8491 56.8895 67.8304 56.8202 67.8303 56.7496V54.3441C67.8303 54.2003 67.9069 54.0684 68.0309 53.9974L70.1135 52.7969C70.1743 52.7616 70.2433 52.7431 70.3137 52.7431C70.384 52.7431 70.453 52.7616 70.5139 52.7969L72.5964 53.9974C72.6575 54.0323 72.7083 54.0828 72.7436 54.1437C72.779 54.2045 72.7977 54.2737 72.7978 54.3441V56.2363C72.7974 56.307 72.8157 56.3766 72.851 56.438C72.8862 56.4994 72.9371 56.5503 72.9984 56.5856C73.0597 56.6209 73.1293 56.6393 73.2 56.639C73.2708 56.6387 73.3402 56.6196 73.4012 56.5838L77.3807 54.2682Z" fill="#404137"/>
<path d="M70.2744 53.9082C70.2979 53.8951 70.3244 53.8882 70.3514 53.8882C70.3784 53.8882 70.4049 53.8951 70.4284 53.9082L71.7038 54.6451C71.7512 54.6727 71.7804 54.724 71.7804 54.7785V56.2514C71.7804 56.3067 71.7512 56.3572 71.7038 56.3849L70.4284 57.1209C70.405 57.1345 70.3784 57.1417 70.3514 57.1417C70.3244 57.1417 70.2978 57.1345 70.2744 57.1209L68.9998 56.3849C68.9762 56.3714 68.9566 56.352 68.943 56.3286C68.9294 56.3051 68.9223 56.2785 68.9224 56.2514V54.7785C68.9224 54.724 68.9516 54.6727 68.9998 54.6451L70.2744 53.9082Z" fill="#83CD29"/>
<path d="M52.9781 56.9725C52.9781 57.0436 52.9402 57.1099 52.8778 57.1463L50.5955 58.462C50.5651 58.4798 50.5305 58.4892 50.4952 58.4892C50.4599 58.4892 50.4253 58.4798 50.3949 58.462L48.1125 57.1463C48.0821 57.1286 48.0568 57.1033 48.0392 57.0728C48.0216 57.0423 48.0123 57.0077 48.0122 56.9725V54.3364C48.0122 54.2653 48.0509 54.1982 48.1125 54.1618L50.3949 52.8445C50.4253 52.8263 50.4601 52.8167 50.4956 52.8167C50.5311 52.8167 50.5659 52.8263 50.5963 52.8445L52.8794 54.1618C52.9097 54.1798 52.9347 54.2054 52.9522 54.236C52.9696 54.2666 52.9788 54.3012 52.9789 54.3364V56.9725H52.9781ZM53.5949 37.4532C53.5337 37.4198 53.4649 37.4028 53.3952 37.4039C53.3255 37.4049 53.2572 37.4241 53.1971 37.4594C53.1369 37.4947 53.087 37.545 53.0521 37.6054C53.0172 37.6657 52.9985 37.7341 52.9979 37.8039V48.0034C52.9977 48.0526 52.9847 48.1009 52.9602 48.1435C52.9357 48.1862 52.9005 48.2217 52.8581 48.2467C52.8153 48.2711 52.7668 48.284 52.7175 48.284C52.6682 48.284 52.6198 48.2711 52.577 48.2467L50.9122 47.2871C50.7903 47.2169 50.6521 47.18 50.5114 47.18C50.3707 47.18 50.2325 47.2169 50.1106 47.2871L43.4625 51.1237C43.3404 51.1942 43.2389 51.2956 43.1684 51.4177C43.0978 51.5399 43.0606 51.6784 43.0605 51.8195V59.495C43.0605 59.7816 43.2138 60.0462 43.4617 60.1907L50.1098 64.0297C50.3578 64.1734 50.6642 64.1734 50.913 64.0297L57.5626 60.1907C57.6845 60.12 57.7857 60.0185 57.8561 59.8964C57.9265 59.7743 57.9636 59.6359 57.9638 59.495V40.3618C57.9638 40.0712 57.8058 39.8027 57.5523 39.6606L53.5949 37.4532Z" fill="#404137"/>
<path d="M30.1982 47.1424C30.3202 47.0718 30.4586 47.0347 30.5994 47.0347C30.7403 47.0347 30.8787 47.0718 31.0006 47.1424L37.6487 50.9782C37.8967 51.1219 38.0499 51.3873 38.0499 51.674V59.3518C38.0499 59.6385 37.8967 59.9039 37.6487 60.0476L31.0014 63.8866C30.8792 63.9568 30.7408 63.9938 30.5998 63.9938C30.4589 63.9938 30.3204 63.9568 30.1982 63.8866L23.5526 60.0476C23.4307 59.9769 23.3295 59.8754 23.2591 59.7533C23.1887 59.6312 23.1515 59.4928 23.1514 59.3518V51.6732C23.1514 51.3873 23.3046 51.1219 23.5526 50.9782L30.1982 47.1424Z" fill="#83CD29"/>
<path d="M18.1088 51.61C18.1088 51.321 17.9572 51.0556 17.7077 50.9127L11.062 47.0879C10.9504 47.0232 10.8245 46.9872 10.6955 46.9829H10.6268C10.4979 46.9873 10.372 47.0233 10.2604 47.0879L3.61389 50.9127C3.49162 50.9834 3.39012 51.0851 3.31956 51.2075C3.24901 51.3299 3.21188 51.4687 3.21191 51.61L3.22613 61.9083C3.22613 62.052 3.30116 62.1855 3.42672 62.255C3.48685 62.2914 3.55582 62.3107 3.62613 62.3107C3.69645 62.3107 3.76542 62.2914 3.82554 62.255L7.77426 59.9931C8.02382 59.8447 8.17624 59.5833 8.17624 59.2966V54.4855C8.17624 54.198 8.32787 53.9334 8.57664 53.7897L10.2588 52.8215C10.3804 52.75 10.519 52.7127 10.66 52.7133C10.7974 52.7133 10.938 52.748 11.0604 52.8215L12.741 53.7897C12.9897 53.9334 13.1429 54.198 13.1429 54.4855V59.2966C13.1429 59.5833 13.2969 59.8463 13.5449 59.9931L17.4936 62.255C17.5545 62.2898 17.6235 62.308 17.6936 62.3078C17.7637 62.3076 17.8326 62.2891 17.8933 62.254C17.9541 62.2189 18.0045 62.1686 18.0397 62.1079C18.0749 62.0472 18.0936 61.9784 18.0938 61.9083L18.1088 51.61Z" fill="#404137"/>
</svg>
