<svg width="102" height="102" viewBox="0 0 102 102" fill="none" xmlns="http://www.w3.org/2000/svg">
<path d="M74.5158 72.9711C75.1357 67.8117 74.9501 67.0543 78.793 67.8907L79.7684 67.976C82.7236 68.1102 86.5894 67.5005 88.8607 66.4454C93.75 64.1765 96.6483 60.3897 91.8285 61.384C80.8321 63.6529 80.0764 59.9293 80.0764 59.9293C91.688 42.701 96.5417 20.8306 92.3513 15.477C80.9238 0.875402 61.143 7.78013 60.8121 7.95861L60.7063 7.97836C58.5337 7.52741 56.1021 7.25811 53.3704 7.21388C48.3942 7.13175 44.6185 8.51854 41.7541 10.6903C41.7541 10.6903 6.46594 -3.84805 8.10781 28.9737C8.45688 35.9558 18.1154 81.806 29.6362 67.957C33.8471 62.8932 37.9159 58.6112 37.9159 58.6112C39.9361 59.953 42.3558 60.6385 44.8925 60.3921L45.0891 60.2246C45.0275 60.8533 45.0544 61.4685 45.1673 62.1966C42.2003 65.5128 43.0721 66.0948 37.1388 67.3157C31.1352 68.5525 34.6622 70.7551 36.9643 71.3308C39.756 72.0289 46.2137 73.0177 50.5779 66.9098L50.4041 67.6064C51.5682 68.5383 51.49 74.301 51.6543 78.418C51.8193 82.5357 52.095 86.3778 52.9345 88.6436C53.7739 90.9085 54.7643 96.7432 62.5622 95.0721C69.0792 93.679 74.0617 91.6691 74.5158 72.9711Z" fill="black"/>
<path d="M60.0233 99.1464C56.5745 99.1464 54.3285 97.8125 52.9646 96.5244C50.9057 94.5817 50.0891 92.079 49.6011 90.584L49.3902 89.9601C48.4078 87.3081 48.0745 83.4897 47.8771 78.5728C47.8471 77.8344 47.8265 77.0738 47.8036 76.2675C47.787 75.6776 47.7665 74.9376 47.7365 74.1636C46.494 74.7561 45.1751 75.1728 43.8178 75.4019C41.3862 75.8174 38.7721 75.6831 36.0467 75.0015C34.1237 74.5206 32.1256 73.5239 30.9868 71.9847C27.6675 74.8918 24.5014 74.4977 22.7766 73.922C19.7338 72.9071 17.0107 70.0554 14.4512 65.2056C12.6277 61.7504 10.8642 57.2489 9.20885 51.8249C6.32629 42.3796 4.49487 32.4312 4.33219 29.1648C3.82043 18.9416 6.57269 11.6301 12.5108 7.43581C21.8779 0.819336 36.0704 4.7104 41.2448 6.47706C44.7213 4.38187 48.8113 3.36231 53.4329 3.43576C55.9151 3.47603 58.2788 3.694 60.4743 4.08572C62.7645 3.36547 67.2882 2.3317 72.4665 2.39646C82.0074 2.51018 89.9135 6.22829 95.3288 13.1488C99.1938 18.0863 97.2826 28.4548 95.8003 34.1963C93.7138 42.2722 90.0581 50.8614 85.5676 58.3387C86.7869 58.3474 88.5536 58.2013 91.065 57.6825C96.0198 56.6597 97.469 59.3164 97.8623 60.5058C99.4379 65.2774 92.5892 68.8834 90.4529 69.8753C87.7157 71.146 83.2528 71.92 79.5979 71.7525L79.4384 71.7423L78.4781 71.6578L78.3833 72.4586L78.2917 73.2412C78.0461 82.7173 76.6924 88.7186 73.907 92.6839C70.9873 96.8411 66.9296 98.006 63.3553 98.772C62.1359 99.0326 61.0279 99.1464 60.0233 99.1464ZM52.7656 64.6575C54.9919 66.4391 55.1869 69.7916 55.3615 76.0566C55.3836 76.8385 55.4041 77.5785 55.4318 78.2695C55.5155 80.3623 55.7121 85.2627 56.4797 87.3334C56.5879 87.6264 56.6851 87.9233 56.7877 88.2384C57.643 90.8572 58.0719 92.1706 61.7702 91.38C64.8747 90.7143 66.4708 90.1172 67.7202 88.3387C69.5358 85.7531 70.5514 80.5519 70.7378 72.8795L74.5151 72.9711L70.7638 72.521L70.8744 71.5843C71.2337 68.4964 71.4928 66.2662 73.5564 64.7909C75.2125 63.6079 77.0992 63.7224 78.602 63.9933C76.9507 62.7455 76.4942 61.2821 76.3726 60.6819L76.0575 59.1301L76.9428 57.8167C82.0422 50.251 86.2468 40.9525 88.4802 32.3048C90.7752 23.4194 90.0754 18.7007 89.3757 17.8083C80.1128 5.97241 64.0502 10.8593 62.3728 11.4137L62.0893 11.567L60.6678 11.8315L59.9396 11.6807C57.9321 11.2637 55.7019 11.0331 53.3113 10.9944C49.5553 10.9312 46.525 11.8189 44.0405 13.704L42.3165 15.011L40.3161 14.1873C36.042 12.4396 23.4882 8.92606 16.8638 13.6179C13.1868 16.2225 11.5117 21.3258 11.8845 28.7865C12.0077 31.2497 13.6812 40.5742 16.4421 49.6176C20.2574 62.1153 23.7243 66.267 25.1719 66.7495C25.4247 66.8348 26.0801 66.3254 26.7325 65.542C29.4524 62.2814 32.2688 59.1026 35.178 56.0098L37.3656 53.7077L40.0104 55.4649C41.0766 56.1733 42.2525 56.5752 43.46 56.6511L49.7677 51.2713L48.854 60.5966C48.8334 60.8059 48.8232 61.091 48.9053 61.6201L49.1801 63.3876L47.9876 64.7207L47.8502 64.8755L51.3156 66.4747L52.7656 64.6575Z" fill="black"/>
<path d="M91.8284 61.3837C80.8312 63.6526 80.0754 59.929 80.0754 59.929C91.687 42.6999 96.5408 20.8288 92.352 15.4767C80.9244 0.875877 61.1421 7.78061 60.812 7.95988L60.7054 7.97883C58.5328 7.52789 56.1012 7.25938 53.3679 7.21515C48.3917 7.13381 44.6175 8.51981 41.7531 10.6916C41.7531 10.6916 6.46423 -3.846 8.10532 28.975C8.45439 35.9579 18.1129 81.808 29.6337 67.9591C33.8446 62.8952 37.9126 58.6132 37.9126 58.6132C39.9336 59.955 42.3525 60.6405 44.8884 60.3941L45.0858 60.2267C45.0243 60.8553 45.0527 61.4705 45.1648 62.1987C42.197 65.5148 43.0688 66.0969 37.1355 67.3178C31.1319 68.5545 34.6589 70.7571 36.9618 71.3329C39.7527 72.031 46.2112 73.0198 50.5746 66.9119L50.4 67.6084C51.5633 68.5403 52.3799 73.6673 52.2433 78.315C52.1059 82.9626 52.0143 86.154 52.9312 88.6464C53.8473 91.1388 54.7602 96.746 62.5597 95.0749C69.0767 93.6786 72.4536 90.0593 72.9243 84.0225C73.2576 79.7302 74.0118 80.3652 74.06 76.5278L74.6657 74.7114C75.3638 68.8933 74.7763 67.0169 78.7921 67.8896L79.7674 67.9749C82.7227 68.1091 86.59 67.4994 88.8605 66.4443C93.7491 64.177 96.6482 60.3894 91.8284 61.3837Z" fill="#336791"/>
<path d="M60.4172 96.8172C53.9161 96.8172 51.8564 91.6688 51.0138 89.5634C49.7802 86.4778 49.514 74.5037 49.7889 64.6841C49.7929 64.5185 49.8298 64.3553 49.8972 64.204C49.9646 64.0527 50.0613 63.9162 50.1817 63.8024C50.302 63.6886 50.4438 63.5998 50.5986 63.541C50.7535 63.4823 50.9185 63.4547 51.084 63.46C51.2494 63.4645 51.4123 63.5015 51.5634 63.569C51.7145 63.6365 51.8507 63.7332 51.9644 63.8534C52.0781 63.9736 52.167 64.1151 52.226 64.2697C52.285 64.4243 52.3129 64.589 52.3081 64.7544C51.9915 76.0801 52.4408 86.3436 53.3538 88.6275C54.7785 92.1885 56.9392 95.3032 63.0479 93.9946C68.847 92.7508 71.0187 90.5521 71.9862 84.9442C72.7285 80.6408 74.1967 68.3982 74.3775 65.9824C74.3896 65.8173 74.4342 65.6562 74.5086 65.5084C74.5831 65.3605 74.686 65.2289 74.8115 65.1209C74.9369 65.0129 75.0825 64.9307 75.2397 64.879C75.397 64.8274 75.5629 64.8073 75.728 64.8199C76.0611 64.8451 76.3706 65.0015 76.5885 65.2547C76.8065 65.5079 76.9151 65.8372 76.8905 66.1704C76.7017 68.6857 75.2407 80.9046 74.4699 85.373C73.328 91.9966 70.3751 95.0007 63.5762 96.4586C62.4208 96.7058 61.3712 96.8164 60.4172 96.8172ZM25.1662 71.6709C24.598 71.669 24.0337 71.5757 23.4951 71.3945C19.2724 69.9856 15.2502 63.1085 11.54 50.952C8.71587 41.6986 6.92631 32.04 6.76915 28.9008C6.30399 19.5944 8.70008 13.0104 13.8926 9.33252C24.1648 2.05424 41.4452 8.98503 42.1757 9.28355C42.4852 9.40996 42.7318 9.65412 42.8612 9.96233C42.9907 10.2705 42.9924 10.6175 42.866 10.927C42.7396 11.2365 42.4954 11.4831 42.1872 11.6125C41.879 11.7419 41.532 11.7436 41.2225 11.6172C41.0559 11.5493 24.4855 4.91074 15.3442 11.3922C10.9043 14.5401 8.86592 20.3889 9.28528 28.7752C9.41716 31.4201 11.0891 40.8464 13.9495 50.216C17.2617 61.0686 21.0311 67.9165 24.292 69.004C24.8037 69.1745 26.3611 69.6934 28.5874 67.0162C31.1836 63.8981 33.8772 60.8624 36.6641 57.9136C36.8973 57.681 37.2123 57.5489 37.5416 57.5456C37.871 57.5423 38.1885 57.6681 38.4263 57.896C38.6641 58.1239 38.8033 58.4358 38.814 58.765C38.8247 59.0942 38.7061 59.4145 38.4837 59.6573C38.4458 59.6968 34.6558 63.659 30.5254 68.628C28.5692 70.9807 26.6944 71.6709 25.1662 71.6709ZM79.9973 61.0528C79.7689 61.0525 79.5448 60.9901 79.3491 60.8723C79.1533 60.7545 78.9933 60.5857 78.8861 60.384C78.7788 60.1823 78.7284 59.9552 78.7403 59.7271C78.7521 59.4989 78.8258 59.2783 78.9533 59.0887C90.6913 41.6709 94.8113 20.6251 91.2828 16.1156C86.8413 10.4405 80.5699 7.47662 72.6417 7.30524C66.7715 7.17888 62.1057 8.67782 61.3428 8.93922L61.1509 9.01741C60.3841 9.25828 59.7957 8.83814 59.5738 8.34692C59.4472 8.06548 59.4281 7.74747 59.5199 7.45286C59.6117 7.15826 59.8081 6.90743 60.0721 6.74769C60.1084 6.72636 60.2237 6.6774 60.4109 6.60869L60.3943 6.61343L60.4109 6.6079C61.7069 6.13326 66.4438 4.71252 72.3108 4.77964C81.0832 4.87283 88.3299 8.25531 93.2658 14.563C95.6011 17.5474 95.6066 24.4229 93.2808 33.4276C90.91 42.6084 86.4488 52.4746 81.0422 60.4976C80.8005 60.8586 80.4025 61.0528 79.9973 61.0528ZM80.5975 69.1161C78.5932 69.1161 76.7965 68.8334 75.7209 68.1889C74.6152 67.5264 74.4044 66.626 74.3767 66.1483C74.0751 60.8491 76.9987 59.9267 78.4897 59.5057C78.282 59.1914 77.9867 58.8218 77.681 58.4404C76.8115 57.3537 75.6206 55.8658 74.7029 53.6403C74.5592 53.2928 74.109 52.4849 73.5878 51.549C70.7613 46.4805 64.8801 35.9334 68.6582 30.5324C70.4067 28.0329 73.8887 27.0488 79.0188 27.5977C77.5097 22.9998 70.323 8.61701 53.27 8.33744C48.1414 8.25215 43.9353 9.82927 40.7747 13.0206C33.6986 20.167 33.9545 33.0975 33.9584 33.227C33.9628 33.3924 33.9345 33.5571 33.8753 33.7116C33.816 33.8661 33.7268 34.0074 33.613 34.1274C33.4991 34.2475 33.3627 34.3439 33.2115 34.4112C33.0603 34.4786 32.8974 34.5155 32.732 34.5198C32.5666 34.5242 32.4019 34.4959 32.2474 34.4366C32.0929 34.3773 31.9516 34.2882 31.8316 34.1743C31.7115 34.0604 31.6151 33.924 31.5477 33.7729C31.4804 33.6217 31.4435 33.4588 31.4392 33.2933C31.4234 32.7192 31.1596 19.1498 38.9844 11.2469C42.6464 7.54849 47.467 5.7226 53.3119 5.81816C64.2214 5.99743 71.2438 11.5438 75.2131 16.1646C79.5401 21.2008 81.6613 26.7558 81.8359 28.6102C81.9662 29.9891 80.9766 30.2647 80.7768 30.3057L80.3219 30.316C75.2873 29.5097 72.0573 30.0696 70.7218 31.9776C67.8479 36.0851 73.4117 46.0619 75.7872 50.3226C76.3937 51.4093 76.8313 52.1951 77.0319 52.68C77.8121 54.5722 78.8301 55.8437 79.6475 56.8656C80.3669 57.7643 80.9901 58.5438 81.2128 59.4583C81.3162 59.64 82.7843 61.8118 91.496 60.0135C93.6796 59.5634 94.989 59.948 95.3894 61.1587C96.1768 63.5397 91.759 66.3173 89.3132 67.4529C87.1216 68.4717 83.6238 69.1161 80.5975 69.1161ZM76.8889 65.9405C77.1653 66.2193 78.5482 66.7003 81.4118 66.5771C83.9579 66.4681 86.643 65.9145 88.2541 65.1666C90.3146 64.2094 91.6903 63.1393 92.4026 62.4088L92.0078 62.4815C86.4377 63.6313 82.4977 63.4781 80.2974 62.0258C80.1496 61.9281 80.0073 61.8223 79.871 61.7091C79.6325 61.8031 79.4121 61.8647 79.255 61.9089C78.0072 62.2588 76.7167 62.6213 76.8889 65.9405ZM40.9066 72.9811C39.523 72.9811 38.0667 72.7924 36.5796 72.4204C35.0388 72.035 32.4413 70.8749 32.4808 68.9692C32.5259 66.8314 35.6351 66.1901 36.8055 65.9492C41.0338 65.0782 41.3094 64.7291 42.6306 63.0509C43.016 62.562 43.4954 61.9531 44.1493 61.2234C45.1199 60.1367 46.1805 59.5863 47.302 59.5863C48.083 59.5863 48.7235 59.8508 49.1468 60.027C50.4957 60.5861 51.6211 61.9381 52.0839 63.5547C52.5016 65.0134 52.3018 66.4176 51.5231 67.5082C48.9667 71.0881 45.2952 72.9811 40.9066 72.9811ZM35.2031 69.0774C35.5829 69.3712 36.3443 69.7637 37.1917 69.9753C38.4797 70.2976 39.7291 70.461 40.9074 70.461C44.4976 70.461 47.3801 68.9747 49.4737 66.0432C49.9105 65.432 49.7794 64.6556 49.6625 64.2473C49.4177 63.392 48.8096 62.6141 48.1833 62.3543C47.8437 62.2137 47.5618 62.1063 47.3027 62.1063C47.1637 62.1063 46.7404 62.1063 46.0281 62.9032C45.5365 63.456 45.064 64.0255 44.6113 64.6106C42.9655 66.7003 42.2113 67.4095 37.3149 68.418C36.12 68.6628 35.5071 68.9124 35.2031 69.0774ZM44.8924 63.2649C44.5916 63.2644 44.3009 63.1564 44.0728 62.9603C43.8447 62.7642 43.6942 62.4929 43.6486 62.1956C43.6173 61.9864 43.5962 61.7758 43.5854 61.5646C40.3759 61.5046 37.2793 60.1272 34.9283 57.6743C31.9557 54.573 30.6028 50.276 31.2172 45.8858C31.8846 41.1181 31.635 36.9096 31.5008 34.6485C31.4636 34.0199 31.4368 33.5658 31.4384 33.2515C31.4407 32.8527 31.4486 31.7952 34.9835 30.0033C36.2408 29.3659 38.7617 28.254 41.5155 27.9689C46.0779 27.4974 49.0852 29.5294 49.9855 33.6914C52.4155 44.9278 50.1782 49.8977 48.5442 53.5274C48.2402 54.2034 47.9527 54.8415 47.7229 55.4599L47.5199 56.0048C46.6567 58.3195 45.9104 60.3192 46.1395 61.8126C46.1646 61.9761 46.1573 62.143 46.1179 62.3038C46.0785 62.4645 46.0078 62.6159 45.9099 62.7493C45.812 62.8827 45.6888 62.9955 45.5473 63.0813C45.4057 63.167 45.2487 63.2241 45.0851 63.2491L44.8924 63.2649ZM33.9663 33.6005L34.0153 34.5001C34.1543 36.8488 34.4133 41.2192 33.712 46.2357C33.2058 49.8566 34.3115 53.3907 36.747 55.9306C38.6716 57.9381 41.2043 59.0461 43.8073 59.0461H43.861C44.1525 57.818 44.6366 56.5213 45.1578 55.1242L45.3592 54.5825C45.619 53.8843 45.9231 53.2083 46.2453 52.4928C47.8177 48.999 49.7754 44.6498 47.5207 34.2244C47.0745 32.1593 45.9918 30.9644 44.2125 30.5703C40.5575 29.7632 35.1107 32.5123 33.9663 33.6005ZM41.5716 33.0659C41.5084 33.5113 42.3874 34.7007 43.5341 34.8594C44.6784 35.0197 45.6577 34.0894 45.7201 33.644C45.7825 33.1986 44.9043 32.7073 43.7576 32.5478C42.6117 32.3883 41.6324 32.6205 41.5716 33.0659ZM43.7971 35.2977L43.4756 35.2756C42.7649 35.1769 42.0462 34.7291 41.5542 34.0768C41.3812 33.8477 41.0993 33.4039 41.1554 33.0074C41.2351 32.4262 41.9443 32.0779 43.0508 32.0779C43.298 32.0779 43.5554 32.0961 43.8144 32.1324C44.4194 32.2161 44.9809 32.3907 45.3955 32.6221C46.1142 33.0232 46.1671 33.471 46.1347 33.7024C46.0463 34.3445 45.0251 35.2977 43.7971 35.2977ZM41.9893 33.1401C42.0249 33.415 42.7056 34.3216 43.5917 34.444L43.7979 34.4582C44.616 34.4582 45.2273 33.8146 45.2992 33.6037C45.2233 33.46 44.6974 33.103 43.6999 32.964C43.4852 32.9332 43.2685 32.9176 43.0516 32.9174C42.4103 32.9174 42.0699 33.0619 41.9893 33.1401ZM76.4261 32.1569C76.4885 32.6023 75.6103 33.7917 74.4644 33.9512C73.3193 34.1107 72.3392 33.1812 72.276 32.7358C72.216 32.2904 73.0942 31.7984 74.2393 31.6396C75.3844 31.4793 76.3629 31.7123 76.4261 32.1569ZM74.1998 34.1786C73.0973 34.1786 72.1457 33.321 72.0675 32.7642C71.9767 32.0961 73.0768 31.5883 74.2093 31.4311C74.4589 31.3964 74.7061 31.379 74.9438 31.379C75.9215 31.379 76.5691 31.6657 76.6338 32.1285C76.6757 32.4278 76.4459 32.8898 76.0502 33.3068C75.7888 33.5808 75.2399 34.0554 74.492 34.1589L74.1998 34.1786ZM74.9446 31.7991C74.7266 31.7991 74.4991 31.8157 74.2685 31.8473C73.1305 32.0061 72.4513 32.4625 72.4845 32.7073C72.5224 32.9767 73.249 33.7593 74.2006 33.7593L74.4352 33.7427C75.0567 33.6566 75.5234 33.2507 75.7461 33.0169C76.096 32.6497 76.235 32.3038 76.2184 32.1861C76.1963 32.0297 75.7762 31.7991 74.9446 31.7991ZM78.0759 57.7367C77.8476 57.7368 77.6236 57.6749 77.4278 57.5575C77.232 57.44 77.0718 57.2716 76.9644 57.0701C76.8569 56.8687 76.8063 56.6418 76.8179 56.4138C76.8296 56.1858 76.9029 55.9653 77.0303 55.7758C79.7138 51.7678 79.2226 47.6809 78.748 43.7282C78.545 42.0445 78.3365 40.3031 78.3902 38.632C78.4455 36.9127 78.6643 35.4944 78.8751 34.1226C79.1255 32.4973 79.3624 30.962 79.2645 29.1393C79.2555 28.9741 79.2792 28.8087 79.3342 28.6527C79.3892 28.4966 79.4744 28.3529 79.5849 28.2298C79.6954 28.1067 79.8291 28.0065 79.9783 27.9351C80.1275 27.8636 80.2894 27.8222 80.4546 27.8133C80.6198 27.8044 80.7852 27.8281 80.9412 27.8831C81.0973 27.9381 81.241 28.0232 81.3641 28.1338C81.4872 28.2443 81.5874 28.378 81.6588 28.5272C81.7303 28.6764 81.7717 28.8382 81.7806 29.0035C81.8927 31.0868 81.625 32.8242 81.366 34.5056C81.1662 35.8031 80.9592 37.1449 80.9095 38.7126C80.8613 40.1925 81.0501 41.7641 81.2499 43.4273C81.7553 47.6303 82.3279 52.3941 79.1247 57.1776C79.0093 57.3498 78.8533 57.491 78.6703 57.5885C78.4874 57.686 78.2832 57.7369 78.0759 57.7367Z" fill="white"/>
</svg>
