<svg width="88" height="89" viewBox="0 0 88 89" fill="none" xmlns="http://www.w3.org/2000/svg">
<path d="M43.775 51.9061C48.0814 51.9061 51.5724 48.3925 51.5724 44.0583C51.5724 39.724 48.0814 36.2104 43.775 36.2104C39.4686 36.2104 35.9775 39.724 35.9775 44.0583C35.9775 48.3925 39.4686 51.9061 43.775 51.9061Z" fill="#61DAFB"/>
<path d="M73.3917 31.116C71.8869 30.5653 70.3138 30.0146 68.6722 29.5327C69.0826 27.8805 69.4246 26.2284 69.6982 24.645C71.1346 15.5581 69.5614 9.15588 65.1839 6.67762C63.8843 5.92037 62.4479 5.57617 60.8064 5.57617C56.0185 5.57617 49.931 9.15588 43.7751 15.145C37.6192 9.15588 31.5317 5.57617 26.7438 5.57617C25.1023 5.57617 23.6659 5.92037 22.3663 6.67762C17.9888 9.22473 16.4156 15.6269 17.852 24.645C18.1256 26.2284 18.4676 27.8805 18.878 29.5327C17.2364 30.0146 15.6632 30.4965 14.1585 31.116C5.60863 34.4204 0.95752 38.9639 0.95752 44.0581C0.95752 49.1523 5.67703 53.6958 14.1585 57.0001C15.6632 57.5509 17.2364 58.1016 18.878 58.5835C18.4676 60.2356 18.1256 61.8878 17.852 63.4711C16.4156 72.5581 17.9888 78.9603 22.3663 81.4386C23.6659 82.1958 25.1023 82.54 26.7438 82.54C31.6001 82.54 37.6876 78.9603 43.7751 72.9712C49.931 78.9603 56.0185 82.54 60.8064 82.54C62.4479 82.54 63.8843 82.1958 65.1839 81.4386C69.5614 78.8914 71.1346 72.4893 69.6982 63.4711C69.4246 61.8878 69.0826 60.2356 68.6722 58.5835C70.3138 58.1016 71.8869 57.6197 73.3917 57.0001C81.9416 53.6958 86.5927 49.1523 86.5927 44.0581C86.5927 38.9639 81.9416 34.4204 73.3917 31.116ZM63.2687 10.1197C66.0731 11.7718 67.0306 16.866 65.8679 24.0943C65.6627 25.54 65.3207 27.0544 64.9103 28.6378C61.3536 27.8117 57.5916 27.261 53.6245 26.9168C51.2989 23.6124 48.905 20.6523 46.511 17.9675C51.5725 12.9421 56.7024 9.50009 60.8748 9.50009C61.7639 9.50009 62.5847 9.70661 63.2687 10.1197ZM55.6081 50.9422C54.3769 53.1451 52.9405 55.3479 51.4357 57.5508C48.905 57.7574 46.3742 57.8262 43.7751 57.8262C41.1075 57.8262 38.5768 57.7574 36.1144 57.5508C34.6097 55.3479 33.2417 53.1451 32.0105 50.9422C30.7109 48.6704 29.4798 46.3298 28.3854 44.0581C29.4798 41.7863 30.7109 39.4458 32.0105 37.174C33.2417 34.9711 34.6781 32.7682 36.1828 30.5653C38.7136 30.3588 41.2443 30.29 43.8435 30.29C46.511 30.29 49.0418 30.3588 51.5041 30.5653C53.0089 32.7682 54.3769 34.9711 55.6081 37.174C56.9076 39.4458 58.1388 41.7863 59.2332 44.0581C58.0704 46.3298 56.9076 48.6016 55.6081 50.9422ZM61.2852 48.6704C62.3111 51.0798 63.1319 53.4204 63.8843 55.761C61.5588 56.3117 59.0964 56.7248 56.4972 57.069C57.318 55.761 58.2072 54.3842 58.9596 52.9385C59.7804 51.4929 60.5328 50.0472 61.2852 48.6704ZM43.7751 67.3262C42.1335 65.5364 40.5604 63.6088 39.0556 61.6124C40.6287 61.6813 42.2019 61.7501 43.7751 61.7501C45.3483 61.7501 46.9214 61.6813 48.4946 61.6124C46.9898 63.6088 45.4167 65.5364 43.7751 67.3262ZM31.0529 57.0001C28.4538 56.6559 25.9914 56.2429 23.6659 55.6922C24.4183 53.4204 25.239 51.011 26.265 48.6016C27.0174 49.9784 27.7698 51.424 28.5906 52.8008C29.4114 54.3153 30.2322 55.6233 31.0529 57.0001ZM26.265 39.4458C25.239 37.0363 24.4183 34.6958 23.6659 32.3552C25.9914 31.8045 28.4538 31.3914 31.0529 31.0472C30.2322 32.3552 29.343 33.732 28.5906 35.1776C27.7698 36.6233 27.0174 38.069 26.265 39.4458ZM43.7751 20.79C45.4167 22.5798 46.9898 24.5073 48.4946 26.5037C46.9214 26.4349 45.3483 26.366 43.7751 26.366C42.2019 26.366 40.6287 26.4349 39.0556 26.5037C40.5604 24.5073 42.1335 22.5798 43.7751 20.79ZM58.9596 35.2465L56.4972 31.116C59.0964 31.4602 61.5588 31.8733 63.8843 32.424C63.1319 34.6958 62.3111 37.1052 61.2852 39.5146C60.5328 38.069 59.7804 36.6233 58.9596 35.2465ZM21.6823 24.0943C20.5195 16.866 21.4771 11.7718 24.2815 10.1197C24.9655 9.70661 25.7862 9.50009 26.6754 9.50009C30.7793 9.50009 35.9092 12.8733 41.0391 17.9675C38.6452 20.5834 36.2512 23.6124 33.9257 26.9168C29.9586 27.261 26.1966 27.8805 22.6399 28.6378C22.2295 27.0544 21.9559 25.54 21.6823 24.0943ZM4.78785 44.0581C4.78785 40.8226 8.68657 37.3805 15.5264 34.8334C16.8944 34.2827 18.3992 33.8008 19.904 33.3878C20.9983 36.8298 22.3663 40.4784 24.0079 44.1269C22.3663 47.7755 20.9299 51.3552 19.904 54.7972C10.4649 52.0436 4.78785 47.9132 4.78785 44.0581ZM24.2815 77.9965C21.4771 76.3443 20.5195 71.2501 21.6823 64.0219C21.8875 62.5762 22.2295 61.0617 22.6399 59.4784C26.1966 60.3045 29.9586 60.8552 33.9257 61.1994C36.2512 64.5038 38.6452 67.4639 41.0391 70.1487C35.9776 75.1741 30.8477 78.6161 26.6754 78.6161C25.7862 78.6161 24.9655 78.4096 24.2815 77.9965ZM65.8679 64.0219C67.0306 71.2501 66.0731 76.3443 63.2687 77.9965C62.5847 78.4096 61.7639 78.6161 60.8748 78.6161C56.7708 78.6161 51.6409 75.2429 46.511 70.1487C48.905 67.5327 51.2989 64.5038 53.6245 61.1994C57.5916 60.8552 61.3536 60.2356 64.9103 59.4784C65.3207 61.0617 65.5943 62.5762 65.8679 64.0219ZM72.0238 53.2827C70.6558 53.8335 69.151 54.3153 67.6462 54.7284C66.5518 51.2864 65.1839 47.6378 63.5423 43.9892C65.1839 40.3407 66.6203 36.761 67.6462 33.319C77.0853 36.0726 82.7623 40.203 82.7623 44.0581C82.7623 47.2936 78.7952 50.7356 72.0238 53.2827Z" fill="#61DAFB"/>
</svg>
