<svg width="89" height="89" viewBox="0 0 89 89" fill="none" xmlns="http://www.w3.org/2000/svg">
<path d="M61.1707 61.5393C55.0148 74.206 44.2352 82.7284 29.974 85.5303C27.7874 86.0694 25.5427 86.3331 23.2915 86.315C15.0836 86.315 7.55979 82.873 3.9073 77.235C-0.996886 69.7245 -2.66581 53.8016 13.5036 42.023C13.8319 43.8197 14.5023 46.2842 14.9468 47.7436C11.7727 50.117 9.17452 53.1839 7.34775 56.7136C4.33821 62.6614 4.67336 68.6023 8.23694 74.0958C10.6993 77.7995 14.598 80.0505 19.6116 80.739C25.8738 81.5367 32.2266 80.3326 37.7715 77.2969C46.465 72.6984 52.2583 67.2049 56.0476 59.6944C54.9761 58.5799 54.3419 57.1126 54.2624 55.5639C54.2051 53.902 54.8053 52.2851 55.9312 51.0681C57.0571 49.851 58.6167 49.1333 60.2678 49.0723H60.5004C62.1063 49.0642 63.654 49.6777 64.823 50.786C65.992 51.8943 66.693 53.4125 66.7808 55.0265C66.8687 56.6404 66.3367 58.2266 65.295 59.4568C64.2533 60.687 62.7816 61.4671 61.1844 61.6357L61.1707 61.5393ZM80.7806 47.6335C89.1321 57.161 89.3578 68.3752 86.1294 74.8806C83.1198 80.8216 75.1856 86.7694 64.5154 86.7694C59.5343 86.6671 54.6343 85.4812 50.1516 83.2929C51.718 82.1708 53.9409 80.3741 55.1653 79.252C58.6221 80.7592 62.3421 81.5595 66.1091 81.6063C73.0173 81.6063 78.2498 78.3571 81.3688 72.4161C83.3729 68.4922 83.4892 63.8937 81.5945 59.185C79.2697 53.2604 75.1328 48.2337 69.7821 44.8317C62.7621 40.0689 54.4864 37.5299 46.0204 37.5415H44.0163C43.549 38.6279 42.7887 39.561 41.8216 40.2351C40.8546 40.9091 39.7193 41.2971 38.5444 41.3552H38.3324C36.7073 41.3351 35.1541 40.6782 34.0025 39.524C32.851 38.3698 32.1919 36.8093 32.1651 35.1739C32.1384 33.5384 32.7462 31.9569 33.8595 30.7653C34.9727 29.5736 36.5037 28.8657 38.1272 28.7918H38.3529C39.4842 28.7927 40.5935 29.1073 41.5588 29.7012C42.5241 30.295 43.3081 31.1451 43.8248 32.1581H45.61C59.8369 32.1581 72.3265 37.6516 80.7806 47.6335ZM24.1807 63.4668C24.0635 62.3237 24.3387 61.1746 24.9604 60.2107C18.7225 49.3339 15.3846 35.5451 20.5077 21.1918C24.1807 10.4045 33.4282 3.11426 43.4554 3.11426C54.153 3.11426 65.2951 12.5385 66.6289 30.6987C64.96 30.1411 62.525 29.3219 61.0612 29.019C60.6987 23.078 55.7125 8.27731 43.9 8.4976C39.6661 8.61462 33.4282 10.6317 30.2203 14.7759C26.2522 19.7229 23.9438 25.8083 23.6266 32.1581C22.8747 40.8649 24.9044 49.5859 29.42 57.0509C29.6693 56.9592 29.935 56.9217 30.1998 56.9407H30.4186C32.073 56.9106 33.6716 57.5432 34.8626 58.6993C36.0536 59.8554 36.7395 61.4403 36.7694 63.1054C36.7994 64.7705 36.1709 66.3794 35.0222 67.5781C33.8735 68.7768 32.2988 69.4671 30.6443 69.4973H30.4186C28.8046 69.4915 27.2551 68.8591 26.093 67.7318C24.9309 66.6045 24.2459 65.0693 24.1807 63.4462V63.4668Z" fill="#764ABC"/>
</svg>
