<svg width="102" height="102" viewBox="0 0 102 102" fill="none" xmlns="http://www.w3.org/2000/svg">
<path d="M81.0347 33.1742V68.144L51.2929 85.7711L51.0244 86.0159V99.102L51.2929 99.3547L93.1493 75.1569V26.3824L92.7545 26.2876L80.9083 32.8899L80.9715 33.1742" fill="#2F406A"/>
<path d="M21.4569 68.46L51.2934 85.7712V99.3548L9.12109 75.0623V26.4772L9.55545 26.4141L21.3305 33.2611L21.4569 33.656V68.46Z" fill="#2379BD"/>
<path d="M21.4569 33.648L9.12109 26.4771L51.1986 2.18457L93.1814 26.3823L81.0351 33.1741L51.1986 16.1472L21.4569 33.648Z" fill="#03AFEF"/>
<path d="M50.7798 64.4557L50.4561 64.124V50.9827L50.7798 50.8168L50.8588 50.493L62.1285 43.9224L62.476 44.0013V57.5454L50.7877 64.4636" fill="#2F406A"/>
<path d="M38.894 57.9643V43.8989H39.2178L50.677 50.5723L50.7718 50.8329V64.456L38.894 57.9643Z" fill="#2379BD"/>
<path d="M50.5901 36.981L38.894 43.8991L50.7797 50.8173L62.4679 43.9939L50.5901 36.981Z" fill="#03AFEF"/>
<path d="M36.233 73.0324L35.9092 72.7007V59.5593L36.233 59.3935L36.3119 59.0697L47.5816 52.499L47.9291 52.578V66.1142L36.2409 73.0324" fill="#2F406A"/>
<path d="M24.3472 66.5646V52.4756H24.671L36.1459 59.1331L36.2407 59.3937V73.0326L24.3472 66.5646Z" fill="#2379BD"/>
<path d="M36.0354 45.5571L24.3472 52.4753L36.2328 59.3934L47.921 52.5701L36.0354 45.5571Z" fill="#03AFEF"/>
<path d="M66.3692 73.3566L66.0454 73.0249V59.8836L66.3692 59.7177L66.4482 59.3939L77.7178 52.8232L78.0653 52.9022V66.4384L66.3692 73.3566Z" fill="#2F406A"/>
<path d="M54.4839 66.8646V52.7993H54.8077L66.2748 59.4569L66.3695 59.7175V73.3563L54.4839 66.8646Z" fill="#2379BD"/>
<path d="M66.156 45.8813L54.4678 52.7995L66.3534 59.7177L78.0416 52.8943L66.156 45.8813Z" fill="#03AFEF"/>
<path d="M51.8223 81.9327L51.4985 81.6011V68.4597L51.8223 68.2939L51.9013 67.9701L63.1709 61.3994L63.5184 61.4784V75.0146L51.8302 81.9327" fill="#2F406A"/>
<path d="M39.9365 75.4334V61.376H40.2603L51.7195 68.0493L51.8143 68.3099V81.9488L39.9365 75.4334Z" fill="#2379BD"/>
<path d="M51.6247 54.458L39.9365 61.3762L51.8222 68.2943L63.5104 61.4709L51.6247 54.458Z" fill="#03AFEF"/>
<path d="M50.7798 45.8181L50.4561 45.4864V32.3451L50.7798 32.1792L50.8588 31.8554L62.1285 25.2769L62.476 25.3558V38.9236L50.7877 45.8418" fill="#2F406A"/>
<path d="M38.894 39.3182V25.2607H39.2178L50.677 31.9341L50.7718 32.1947V45.8178L38.894 39.3182Z" fill="#2379BD"/>
<path d="M50.5901 18.3428L38.894 25.2609L50.7797 32.1791L62.4679 25.3557L50.5901 18.3428Z" fill="#03AFEF"/>
<path d="M36.233 54.3947L35.9092 54.063V40.9216L36.233 40.7558L36.3119 40.432L47.5816 33.8613L47.9291 33.9403V47.4765L36.2409 54.3947" fill="#2F406A"/>
<path d="M24.3472 47.8949V33.8296H24.671L36.1459 40.5029L36.2407 40.7635V54.3945L24.3472 47.8949Z" fill="#2379BD"/>
<path d="M36.0354 26.9194L24.3472 33.8376L36.2328 40.7557L47.921 33.9324L36.0354 26.9194Z" fill="#03AFEF"/>
<path d="M66.3692 54.7184L66.0454 54.3867V41.2454L66.3692 41.0795L66.4482 40.7557L77.7178 34.1851L78.0653 34.264V47.8002L66.3692 54.7184Z" fill="#2F406A"/>
<path d="M54.4839 48.2188V34.1851H54.8077L66.2669 40.8584L66.3616 41.119V54.7184L54.4839 48.2188Z" fill="#2379BD"/>
<path d="M66.1563 27.2432L54.4839 34.185L66.3695 41.1032L78.0577 34.2798L66.1563 27.2432Z" fill="#03AFEF"/>
<path d="M51.8223 63.2872L51.4985 62.9555V49.8142L51.8223 49.6484L51.9013 49.3246L63.1709 42.7539L63.5184 42.8329V56.3691L51.8302 63.2872" fill="#2F406A"/>
<path d="M39.9365 56.7953V42.73H40.2603L51.7195 49.4033L51.8143 49.6639V63.287L39.9365 56.7953Z" fill="#2379BD"/>
<path d="M51.6247 35.812L39.9365 42.7302L51.8222 49.6483L63.5104 42.8249L51.6247 35.812Z" fill="#03AFEF"/>
</svg>
