<svg width="88" height="89" viewBox="0 0 88 89" fill="none" xmlns="http://www.w3.org/2000/svg">
<path d="M43.7888 17.6245C32.1152 17.6245 24.8219 23.4966 21.9012 35.2457C26.2774 29.3729 31.3861 27.1706 37.2212 28.639C40.5529 29.4747 42.9338 31.9062 45.5706 34.6006C49.8619 38.9837 54.8291 44.0579 65.6764 44.0579C77.3493 44.0579 84.6433 38.1851 87.564 26.4334C83.1871 32.3096 78.0791 34.5118 72.2434 33.0434C68.9123 32.207 66.5341 29.7763 63.8939 27.0818C59.6053 22.6988 54.6396 17.6245 43.7888 17.6245ZM21.9012 44.0579C10.2283 44.0579 2.9343 49.9307 0.0136719 61.6825C4.38982 55.8063 9.49783 53.6041 15.3336 55.0724C18.6653 55.9089 21.0463 58.3396 23.683 61.034C27.9744 65.4171 32.9415 70.4914 43.7888 70.4914C55.4617 70.4914 62.7558 64.6193 65.6764 52.8702C61.2996 58.743 56.1916 60.9452 50.3558 59.4769C47.0248 58.6411 44.6465 56.2097 42.0064 53.5153C37.7178 49.1322 32.752 44.0579 21.9012 44.0579Z" fill="#38B2AC"/>
</svg>
