<svg width="62" height="63" viewBox="0 0 62 63" fill="none" xmlns="http://www.w3.org/2000/svg">
<path d="M1.86328 31.5224V61.4002H61.0029V1.64453H1.86328V31.5224ZM49.5203 29.1321C50.9368 29.4643 52.2242 30.2128 53.2201 31.2833C53.7684 31.8601 54.245 32.5022 54.6395 33.1955C54.6395 33.272 52.0846 35.0169 50.5281 35.9921C50.4713 36.0303 50.2442 35.7817 49.9935 35.4041C49.7093 34.9087 49.3056 34.4941 48.8199 34.199C48.3343 33.9039 47.7826 33.7379 47.2163 33.7166C45.4232 33.5923 44.2687 34.5436 44.2782 36.1068C44.2634 36.496 44.3516 36.8822 44.5337 37.2254C44.9264 38.0524 45.6597 38.5448 47.9591 39.5487C52.1935 41.3892 54.0055 42.6034 55.1315 44.3292C56.39 46.2414 56.6691 49.3295 55.8175 51.6146C54.8713 54.1004 52.553 55.7879 49.2743 56.3472C47.7768 56.5205 46.2638 56.5045 44.7703 56.2994C42.4909 55.9258 40.3882 54.8292 38.7664 53.1682C38.2223 52.5611 37.1625 50.9788 37.2288 50.8641C37.4015 50.7345 37.5833 50.6179 37.7729 50.5151L39.9492 49.253L41.6477 48.2587L42.0025 48.7893C42.6014 49.6549 43.3635 50.3924 44.2451 50.9597C46.1376 51.9636 48.7208 51.8249 49.9982 50.6633C50.4271 50.2376 50.6947 49.6734 50.7543 49.069C50.8139 48.4645 50.6619 47.8581 50.3246 47.3552C49.8515 46.6907 48.9053 46.1314 46.2606 44.965C43.209 43.636 41.8937 42.8138 40.692 41.5039C39.9418 40.6396 39.3879 39.6198 39.0692 38.5162C38.8315 37.2553 38.7963 35.964 38.9651 34.6918C39.5944 31.7136 41.8038 29.6341 45.0305 29.0174C46.5248 28.8306 48.0384 28.8725 49.5203 29.1417V29.1321ZM35.6391 31.6371V34.0847H27.9604V56.1847H22.5148V34.0799H14.8172V31.6897C14.7966 30.8668 14.8187 30.0435 14.8835 29.223C14.9118 29.1847 19.6146 29.1656 25.292 29.1752H35.6107L35.6391 31.6371Z" fill="#007ACC"/>
</svg>
