<svg width="93" height="93" viewBox="0 0 93 93" fill="none" xmlns="http://www.w3.org/2000/svg">
<g clip-path="url(#clip0_188_2727)">
<path d="M92.6923 13.7647L49.0055 91.7861C48.1035 93.3969 45.7862 93.4064 44.8706 91.8034L0.317665 13.7723C-0.679741 12.0254 0.815913 9.90943 2.79796 10.2633L46.5315 18.0705C46.8105 18.1203 47.0961 18.1199 47.3751 18.0691L90.194 10.2744C92.1694 9.91486 93.6721 12.0144 92.6923 13.7647Z" fill="url(#paint0_linear_188_2727)"/>
<path d="M67.3641 0.0228957L35.0346 6.34978C34.5033 6.45376 34.1098 6.9035 34.0778 7.44324L32.0891 40.9888C32.0423 41.779 32.7688 42.3922 33.5409 42.2143L42.5419 40.1397C43.3841 39.9457 44.1451 40.6865 43.972 41.5323L41.2978 54.6109C41.1178 55.4911 41.9453 56.2438 42.806 55.9827L48.3654 54.2957C49.2273 54.0344 50.0554 54.7892 49.8731 55.6702L45.6233 76.2137C45.3574 77.4987 47.0688 78.1994 47.7825 77.0977L48.2593 76.3619L74.6031 23.8541C75.0443 22.975 74.2836 21.9725 73.3167 22.1588L64.0517 23.9447C63.1811 24.1124 62.4403 23.3026 62.686 22.4518L68.7332 1.51505C68.9791 0.662854 68.2357 -0.147654 67.3641 0.0228957Z" fill="url(#paint1_linear_188_2727)"/>
</g>
<defs>
<linearGradient id="paint0_linear_188_2727" x1="-0.770129" y1="7.47488" x2="53.5128" y2="81.2882" gradientUnits="userSpaceOnUse">
<stop stop-color="#41D1FF"/>
<stop offset="1" stop-color="#BD34FE"/>
</linearGradient>
<linearGradient id="paint1_linear_188_2727" x1="44.0214" y1="1.74063" x2="53.8327" y2="69.1302" gradientUnits="userSpaceOnUse">
<stop stop-color="#FFEA83"/>
<stop offset="0.0833333" stop-color="#FFDD35"/>
<stop offset="1" stop-color="#FFA800"/>
</linearGradient>
<clipPath id="clip0_188_2727">
<rect width="93" height="93" fill="white"/>
</clipPath>
</defs>
</svg>
